<svg width="512" height="512" viewBox="0 0 512 512" fill="none" xmlns="http://www.w3.org/2000/svg">
<path d="M478.609 400.696V367.304H445.217V211.478H411.826V178.087H378.435V144.696H256V178.087H222.609V211.478H189.217V333.913H222.609V367.304H256V400.696H411.826V434.087H445.217V467.478H512V400.696H478.609Z" fill="#57A4FF"/>
<path d="M33.391 44.522H0V400.696H33.391V44.522Z" fill="black"/>
<path d="M512 44.522H478.609V333.913H512V44.522Z" fill="black"/>
<path d="M111.304 44.522H77.913V333.913H111.304V44.522Z" fill="black"/>
<path d="M111.304 367.304H77.913V400.695H111.304V367.304Z" fill="black"/>
<path d="M189.217 44.522H155.826V178.087H189.217V44.522Z" fill="black"/>
<path d="M189.217 367.304H155.826V400.695H189.217V367.304Z" fill="black"/>
<path d="M278.261 44.522H244.87V111.305H278.261V44.522Z" fill="black"/>
<path d="M356.174 44.522H322.783V111.305H356.174V44.522Z" fill="black"/>
<path d="M434.087 44.522H400.696V111.305H434.087V44.522Z" fill="black"/>
<path d="M445.217 211.478H411.826V367.304H445.217V211.478Z" fill="black"/>
<path d="M411.826 367.304H256V400.695H411.826V367.304Z" fill="black"/>
<path d="M378.435 144.696H256V178.087H378.435V144.696Z" fill="black"/>
<path d="M222.608 211.478H189.217V333.913H222.608V211.478Z" fill="black"/>
<path d="M256 178.087H222.609V211.478H256V178.087Z" fill="black"/>
<path d="M411.826 178.087H378.435V211.478H411.826V178.087Z" fill="black"/>
<path d="M445.217 400.696H411.826V434.087H445.217V400.696Z" fill="black"/>
<path d="M256 333.913H222.609V367.304H256V333.913Z" fill="black"/>
<path d="M478.608 367.304H445.217V400.695H478.608V367.304Z" fill="black"/>
<path d="M478.609 434.087H445.217V467.478H512V400.696H478.609V434.087Z" fill="black"/>
<path d="M378.435 211.478H256V333.913H378.435V211.478Z" fill="#00479B"/>
</svg>
